<svg width="21" height="20" viewBox="0 0 21 20" fill="none" xmlns="http://www.w3.org/2000/svg">
<path d="M19.954 5.4157C20.6667 5.04087 20.6667 4.02038 19.954 3.64556L15.1024 1.09407C14.4365 0.743875 13.637 1.22677 13.637 1.97914V7.08212C13.637 7.83449 14.4365 8.31738 15.1024 7.96718L19.954 5.4157Z" fill="#BDBDBD"/>
<path d="M1.43318 16.3545C0.720465 15.9797 0.720465 14.9592 1.43318 14.5844L6.28478 12.0329C6.95068 11.6827 7.75024 12.1656 7.75024 12.918V18.021C7.75024 18.7733 6.95068 19.2562 6.28478 18.906L1.43318 16.3545Z" fill="#BDBDBD"/>
<path d="M2.63696 9.41455V9.41455C2.63696 6.62623 4.89734 4.36584 7.68566 4.36584H8.63696H13.637" stroke="#BDBDBD" stroke-width="2" stroke-linecap="round" stroke-linejoin="round"/>
<path d="M17.637 10.256V10.256C17.637 13.0443 15.3766 15.3047 12.5883 15.3047H11.637H6.63696" stroke="#BDBDBD" stroke-width="2" stroke-linecap="round" stroke-linejoin="round"/>
</svg>
